/**
 * @file haruhikage.h
 * @brief 春日影 (Haruhikage) - 乐谱数据
 *
 * 格式: {音符, 时值} 交替排列, 0xFF 结束
 * 时值单位: SPEED/8 ms (八分音符=62.5ms), 4=十六分, 8=八分, 12=附点四分, 可直接求和
 */

#ifndef MUSIC_PLAYER_ENABLED
#error "haruhikage.h requires MUSIC_PLAYER_ENABLED"
#endif

#include "music_player.h"

// clang-format off
const uint8_t song_haruhikage[] = {
    NOTE_E6,8, NOTE_D6,4, NOTE_C6,8, NOTE_D6,4,
    NOTE_E6,6, NOTE_F6,2, NOTE_E6,4, NOTE_D6,12,

    NOTE_E6,8, NOTE_D6,4, NOTE_C6,8, NOTE_D6,4,
    NOTE_E6,6, NOTE_F6,2, NOTE_E6,4, NOTE_D6,12,

    NOTE_E6,8, NOTE_D6,4, NOTE_C6,8, NOTE_D6,4,
    NOTE_E6,6, NOTE_F6,2, NOTE_E6,4, NOTE_D6,12,

    NOTE_E6,8, NOTE_D6,4, NOTE_C6,8, NOTE_D6,4,
    NOTE_E6,6, NOTE_F6,2, NOTE_E6,4, NOTE_D6,8, NOTE_C6,2, NOTE_D6,2,

    NOTE_E5,4, NOTE_E5,4, NOTE_D5,4, NOTE_F5,4, NOTE_E5,4, NOTE_D5,4,
    NOTE_D5,4, NOTE_D5,4, NOTE_C5,2, NOTE_C5,2, NOTE_F5,4, NOTE_E5,4, NOTE_D5,4,
    NOTE_D5,4, NOTE_C5,4, NOTE_C5,2, NOTE_D5,2, NOTE_E5,8+4,
    NOTE_P,12, NOTE_E5,4, NOTE_G5,4, NOTE_C6,2, NOTE_C6,2,

    NOTE_B5,8, NOTE_C6,4, NOTE_B5,8, NOTE_C6,4,
    NOTE_B5,2, NOTE_A5,2, NOTE_G5,4, NOTE_P,4, NOTE_G5,4, NOTE_D5,4, NOTE_F5,4,
    NOTE_F5,8, NOTE_E5,4, NOTE_E5,4, NOTE_P,4, NOTE_G4,4,
    NOTE_F5,4, NOTE_E5,4, NOTE_D5,4, NOTE_E5,8, NOTE_G5,4,
    NOTE_C5,12, NOTE_P,4, NOTE_P,4, NOTE_C5,4,

    NOTE_D5,4, NOTE_C5,6, NOTE_C5,2, NOTE_C5,4, NOTE_G5,4, NOTE_C5,4,
    NOTE_F5,8, NOTE_E5,4, NOTE_D5,4, NOTE_C5,4, NOTE_C5,4,
    NOTE_C5,12, NOTE_P,4, NOTE_P,4, NOTE_C5,2, NOTE_D5,2,

    NOTE_E5,4, NOTE_E5,4, NOTE_D5,4, NOTE_F5,4, NOTE_E5,4, NOTE_D5,4,
    NOTE_D5,4, NOTE_D5,4, NOTE_C5,4, NOTE_F5,4, NOTE_E5,4, NOTE_D5,4,
    NOTE_D5,4, NOTE_C5,4, NOTE_C5,2, NOTE_D5,2, NOTE_E5,12+8,
    NOTE_P,4, NOTE_E5,4, NOTE_G5,4, NOTE_C5,4,

    NOTE_B5,8, NOTE_C6,4, NOTE_B5,8, NOTE_C6,4,
    NOTE_B5,2, NOTE_A5,2, NOTE_G5,4, NOTE_P,4, NOTE_G5,4, NOTE_D5,4, NOTE_F5,4,
    NOTE_F5,4, NOTE_E5,4, NOTE_E5,4, NOTE_E5,4, NOTE_P,4, NOTE_G4,4,
    NOTE_F5,4, NOTE_E5,4, NOTE_D5,4, NOTE_E5,8, NOTE_G5,4,
    NOTE_C5,12+8, NOTE_C5,2, NOTE_C5,2,

    NOTE_D5,4, NOTE_C5,4, NOTE_P,4, NOTE_C5,4, NOTE_G5,4, NOTE_C5,4,
    NOTE_F5,4, NOTE_F5,2, NOTE_F5,2, NOTE_E5,2, NOTE_D5,2, NOTE_D5,4, NOTE_C5,4, NOTE_C5,4,
    NOTE_C5,8+4, NOTE_P,12,

    NOTE_A6,4, NOTE_G6,4, NOTE_G6,4, NOTE_G6,4, NOTE_F6,4, NOTE_F6,4,
    NOTE_E6,4, NOTE_D6,4, NOTE_D6,4, NOTE_D6,8, NOTE_G6,4,
    NOTE_G5,4, NOTE_F5,2, NOTE_F5,2, NOTE_F5,4, NOTE_F5,4, NOTE_E5,4, NOTE_D5,4,
    NOTE_D5,4, NOTE_C5,4, NOTE_C5,2, NOTE_B4,2, NOTE_C5,12,

    NOTE_A6,4, NOTE_G6,4, NOTE_G6,4, NOTE_G6,4, NOTE_F6,4, NOTE_F6,4,
    NOTE_E6,4, NOTE_D6,4, NOTE_D6,4, NOTE_D6,8, NOTE_E5,4,
    NOTE_E5,4, NOTE_E5,2, NOTE_E5,2, NOTE_E5,2, NOTE_E5,2, NOTE_E5,4, NOTE_D5,4, NOTE_E5,4,
    NOTE_D6,8, NOTE_C6,4, NOTE_C6,4, NOTE_P,4, NOTE_C6,4,

    NOTE_B5,8, NOTE_A5,4, NOTE_A5,12,
    NOTE_P,4, NOTE_P,4, NOTE_A5,4, NOTE_A5,4, NOTE_G5,4, NOTE_F5,2, NOTE_F5,2,
    NOTE_F5,8, NOTE_E5,4, NOTE_E5,2, NOTE_F5,2, NOTE_G5,8,
    NOTE_G5,12, NOTE_P,12,

    NOTE_E5,2, NOTE_D5,2, NOTE_E5,2, NOTE_D5,2, NOTE_E5,2, NOTE_F5,2, NOTE_G5,4, NOTE_P,4, NOTE_F5,2, NOTE_G5,2,
    NOTE_A5,4, NOTE_P,4, NOTE_A5,2, NOTE_B5,2, NOTE_C6,4, NOTE_P,4, NOTE_D6,2, NOTE_C6,2,
    NOTE_G5,8, NOTE_P,2, NOTE_G4,2, NOTE_G5,4, NOTE_F5,4, NOTE_F5,4,
    NOTE_E5,8, NOTE_E5,2, NOTE_F5,2, NOTE_G5,8, NOTE_P,4,

    NOTE_E5,2, NOTE_D5,2, NOTE_E5,2, NOTE_D5,2, NOTE_E5,2, NOTE_F5,2, NOTE_G5,4, NOTE_P,4, NOTE_F5,2, NOTE_G5,2,
    NOTE_A5,4, NOTE_P,4, NOTE_G5,2, NOTE_A5,2, NOTE_B5,4, NOTE_P,4, NOTE_P,2, NOTE_E5,2,
    NOTE_E6,4, NOTE_E6,4, NOTE_P,2, NOTE_E5,2, NOTE_F6,4, NOTE_E6,4, NOTE_D6,4,
    NOTE_D6,4+2, NOTE_C6,2, NOTE_C5,2, NOTE_B5,2, NOTE_C6,4, NOTE_P,4, NOTE_G5,2, NOTE_C6,2,

    NOTE_D6,8, NOTE_C6,4, NOTE_C6,4, NOTE_P,4, NOTE_G5,4,
    NOTE_D6,8, NOTE_C6,4, NOTE_C6,4, NOTE_P,4, NOTE_G5,2, NOTE_C6,2,
    NOTE_D6,4, NOTE_C6,4, NOTE_C6,8, NOTE_P,4, NOTE_G5,2, NOTE_C6,2,
    NOTE_D6,4+2, NOTE_E6,2, NOTE_D6,4, NOTE_C6,4, NOTE_P,4, NOTE_C6,4,

    NOTE_B5,4, NOTE_A5,4, NOTE_A5,4, NOTE_A5,4, NOTE_P,4, NOTE_G5,4,
    NOTE_G5,8, NOTE_F5,4, NOTE_F5,4, NOTE_E5,4, NOTE_D5,4,
    NOTE_E5,12, NOTE_P,12,

    NOTE_E5,4, NOTE_F5,4, NOTE_E5,4, NOTE_F5,4, NOTE_E5,4, NOTE_D5,4,
    NOTE_C5,12, NOTE_C5,8, NOTE_P,4,
    NOTE_P,12, NOTE_P,4, NOTE_P,4, NOTE_C5,2, NOTE_D5,2,

    NOTE_E5,4, NOTE_E5,4, NOTE_D5,4, NOTE_F5,4, NOTE_E5,4, NOTE_D5,4,
    NOTE_D5,4, NOTE_D5,4, NOTE_C5,2, NOTE_C5,2, NOTE_F5,4, NOTE_E5,4, NOTE_D5,4,
    NOTE_D5,6, NOTE_D5,2, NOTE_C5,2, NOTE_D5,2, NOTE_E5,12,
    NOTE_P,12, NOTE_E5,4, NOTE_G5,4, NOTE_C6,4,

    NOTE_B5,8, NOTE_C6,4, NOTE_B5,8, NOTE_C6,4,
    NOTE_B5,2, NOTE_A5,2, NOTE_G5,4, NOTE_P,4, NOTE_G5,4, NOTE_D5,4, NOTE_F5,4,
    NOTE_F5,4, NOTE_E5,4, NOTE_E5,4, NOTE_E5,4, NOTE_P,4, NOTE_P,4,
    NOTE_F5,4, NOTE_E5,4, NOTE_D5,4, NOTE_E5,8, NOTE_G5,4,
    NOTE_C5,8, NOTE_C5,8, NOTE_P,4, NOTE_C5,2, NOTE_C5,2,

    NOTE_D5,4, NOTE_C5,4, NOTE_P,4, NOTE_C5,4, NOTE_G5,4, NOTE_C5,4,
    NOTE_F5,8, NOTE_E5,4, NOTE_D5,8, NOTE_C5,4,
    NOTE_C5,12, NOTE_P,12,

    0xFF
};
// clang-format on
